<svg width="78" height="67" viewBox="0 0 78 67" fill="none" xmlns="http://www.w3.org/2000/svg">
<path d="M65.5302 48.9774C64.5478 51.1735 63.1409 53.024 61.2904 54.3793C59.4426 55.7372 57.5948 56.4148 55.7442 56.4148C52.7399 56.4148 50.3151 55.3889 48.4646 53.337C46.6168 51.2878 45.6916 48.5855 45.6916 45.2328V6.59499L34.5122 0.776733V25.3751C30.9962 23.051 26.7863 21.6958 22.258 21.6958C9.9656 21.6958 0 31.6614 0 43.9538C0 56.2461 9.9656 66.2117 22.258 66.2117C29.4451 66.2117 35.8348 62.8019 39.9032 57.5143L39.9304 57.6748C40.8802 60.4669 42.9892 62.4753 44.867 63.5257C48.0727 65.3164 51.7575 66.2117 55.9184 66.2117C60.0794 66.2117 63.8049 65.0715 67.4461 62.7883C69.5333 61.4793 71.2968 59.9472 72.7364 58.1919C72.7364 58.1919 76.1136 54.4691 77.2266 48.9801H65.5302V48.9774ZM22.258 56.6516C15.245 56.6516 9.56012 50.9667 9.56012 43.9538C9.56012 36.9408 15.245 31.2559 22.258 31.2559C29.2709 31.2559 34.9558 36.9408 34.9558 43.9538C34.9558 50.9667 29.2709 56.6516 22.258 56.6516Z" fill="#1A4170"/>
<path d="M77.76 41.5563C77.5123 41.7576 76.8429 41.7849 76.3803 41.9372C75.5639 42.1468 74.6876 42.5223 74.0236 43.0911C73.7052 43.3578 73.4221 43.6708 73.1881 44.0136C72.3581 45.1893 72.1649 46.6942 71.9907 47.2085C71.8601 47.5977 71.7376 47.3908 71.6342 46.9309C71.0137 43.4748 69.1986 42.1277 66.1724 41.6678C66.0745 41.6461 65.8677 41.5916 66.0337 41.5263C68.6244 41.1589 70.777 40.4351 71.4682 37.1558C71.6152 36.6605 71.6369 35.8741 71.8819 35.6292C71.9608 35.6346 71.9907 35.738 72.0261 35.8224C72.2139 36.3367 72.4125 37.9314 73.2752 39.1479C73.9827 40.2037 75.1937 40.8922 76.3939 41.1889C76.8483 41.3413 77.5205 41.3603 77.7573 41.5563V41.5617L77.76 41.5563Z" fill="#1A4170"/>
<path d="M28.1524 43.9918C27.9048 44.1932 27.2353 44.2204 26.7727 44.3728C25.9563 44.5823 25.08 44.9579 24.416 45.5267C24.0976 45.7933 23.8146 46.1063 23.5806 46.4492C22.7505 47.6248 22.5573 49.1297 22.3832 49.6441C22.2525 50.0332 22.1301 49.8264 22.0267 49.3665C21.4062 45.9104 19.5911 44.5633 16.5649 44.1034C16.4669 44.0816 16.2601 44.0272 16.4261 43.9619C19.0168 43.5945 21.1694 42.8706 21.8607 39.5914C22.0076 39.0961 22.0294 38.3096 22.2743 38.0647C22.3532 38.0701 22.3832 38.1735 22.4185 38.2579C22.6063 38.7722 22.805 40.367 23.6676 41.5834C24.3752 42.6393 25.5862 43.3278 26.7863 43.6244C27.2408 43.7768 27.913 43.7959 28.1497 43.9918V43.9973L28.1524 43.9918Z" fill="#1A4170"/>
<path d="M21.9722 6.95972C11.8542 6.95972 3.24386 13.0937 0 21.6714H11.2582C13.6857 18.5472 17.58 16.5198 21.9722 16.5198C27.9864 16.5198 33.0672 20.3189 34.7245 25.5357V10.5764C31.0588 8.29318 26.6802 6.95972 21.9722 6.95972Z" fill="#1A4170"/>
</svg>

