<svg width="81" height="195" viewBox="0 0 81 195" fill="none" xmlns="http://www.w3.org/2000/svg">
<path d="M62 0H45V95L62 90V0Z" fill="#D9D9D9"/>
<path fill-rule="evenodd" clip-rule="evenodd" d="M0 36V82L17 77V41L0 36Z" fill="#D9D9D9"/>
<path fill-rule="evenodd" clip-rule="evenodd" d="M0 82.3245L44.1721 95.1628L44.1154 77.4429L4.74461 66L0 82.3245Z" fill="#D9D9D9"/>
<path d="M79.6135 131L79.6135 143.5L53.855 157.557L57.355 141.62L79.6135 131Z" fill="#D9D9D9"/>
<path d="M45 96L62 101.5L77.5 95L62 91L45 96Z" fill="#D9D9D9"/>
<path d="M0 35L17 40L32 33L17 29L0 35Z" fill="#D9D9D9"/>
<path d="M44.5 97L61 102.5L41 194.5L24 184.5L44.5 97Z" fill="#D9D9D9"/>
</svg>
